<?xml version="1.0" encoding="utf-8"?>
<!-- Generator: Adobe Illustrator 16.0.0, SVG Export Plug-In . SVG Version: 6.00 Build 0)  -->
<!DOCTYPE svg PUBLIC "-//W3C//DTD SVG 1.1//EN" "http://www.w3.org/Graphics/SVG/1.1/DTD/svg11.dtd">
<svg version="1.1" id="Capa_1" xmlns="http://www.w3.org/2000/svg" xmlns:xlink="http://www.w3.org/1999/xlink" x="0px" y="0px"
	 width="640px" height="300px" viewBox="0 0 640 300" enable-background="new 0 0 640 300" xml:space="preserve">
<g>
	<path d="M543.794,182.748c-1.891-3.219-6.034-4.297-9.255-2.404c-3.22,1.891-4.297,6.035-2.405,9.254
		c5.469,9.309,8.359,19.951,8.359,30.775c0,33.566-27.31,60.875-60.875,60.875c-33.566,0-60.875-27.309-60.875-60.875
		c0-8.541,1.786-16.93,5.214-24.658l17.966,17.086c-0.499,2.488-0.753,5.021-0.753,7.572c0,21.201,17.247,38.449,38.447,38.449
		c21.201,0,38.448-17.25,38.448-38.449c0-21.201-17.247-38.447-38.448-38.447c-3.207,0-6.37,0.404-9.45,1.186l-17.965-17.084
		c8.46-4.285,17.794-6.529,27.415-6.529c14.452,0,28.47,5.168,39.47,14.551c1.273,1.086,2.835,1.617,4.385,1.617
		c1.912,0,3.811-0.807,5.147-2.375c2.423-2.84,2.085-7.109-0.756-9.531c-13.446-11.467-30.58-17.784-48.247-17.784
		c-13.368,0-26.295,3.536-37.704,10.267l-8.318-7.911c12.326-7.01,26.568-11.021,41.734-11.021c4.487,0,9.009,0.359,13.444,1.065
		c1.975,0.316,3.982-0.259,5.492-1.566l21.336-18.476c3.401-2.946,5.981-6.618,7.574-10.714c5.698-14.648,5.978-42.3-4.89-54.711
		C488.478,18.862,444.245,2.104,393.743,5.71c-12.403,0.887-19.554,14.59-13.165,25.328l2.971,4.996H369.44
		c-3.734,0-6.762,3.027-6.762,6.762c0,3.734,3.027,6.761,6.762,6.761h21.797c3.143,6.904,4.625,14.405,4.354,21.954
		c-13.563-12.063-31.021-18.785-49.607-18.785c-24.498,0-47.065,11.763-61.112,31.643h-48.65c-3.826,0-7.575-1.32-10.559-3.716
		l-49.471-39.748c-1.2-0.964-2.695-1.49-4.234-1.49h-40.45c-11.223,0-20.353,9.13-20.353,20.354c0,6.537,3.17,12.716,8.48,16.532
		l14.553,10.452c3.03,2.178,7.257,1.486,9.436-1.547c2.178-3.033,1.485-7.257-1.547-9.436l-14.553-10.453
		c-1.783-1.28-2.847-3.354-2.847-5.548c0-3.767,3.064-6.831,6.831-6.831h38.07l47.62,38.258c5.374,4.318,12.131,6.696,19.026,6.696
		h51.177l43.784,16.736l24.099,9.211c-1.254,0.65-17.505,14.893-43.909,14.893h-14.848c-14.868,0-28.983,7.991-36.564,21.708
		l-11.175-8.027c-0.002-0.002-0.003-0.002-0.005-0.002l-88.374-63.474c-3.031-2.178-7.256-1.486-9.436,1.546
		c-2.177,3.034-1.484,7.258,1.548,9.437l80.126,57.549l-14.576,8.965c-13.769-13.062-32.139-20.459-51.229-20.459
		c-41.024,0.001-74.399,33.375-74.399,74.399s33.375,74.396,74.397,74.396c41.025,0,74.398-33.373,74.398-74.396
		c0-6.303-0.805-12.545-2.38-18.623l16.005-9.85v50.693c0,19.324,15.722,35.045,35.046,35.045h32.579v3.609h-44.112
		c-3.735,0-6.762,3.025-6.762,6.76c0,3.736,3.026,6.762,6.762,6.762h50.873c3.735,0,6.762-3.025,6.762-6.762v-10.369h62.037
		c2.465,0,4.735-1.342,5.923-3.502c1.188-2.158,1.108-4.797-0.212-6.879c-8.575-13.525-13.107-29.178-13.107-45.268
		c0-16.688,4.854-32.258,13.219-45.383l9.808,9.328c-5.543,10.598-8.455,22.391-8.455,34.436c0,41.023,33.374,74.398,74.398,74.398
		c41.022,0,74.397-33.373,74.397-74.396C554.017,207.143,550.481,194.131,543.794,182.748L543.794,182.748z M504.544,220.373
		c0,13.744-11.182,24.926-24.925,24.926c-12.009,0-22.062-8.541-24.407-19.863l10.289,9.783c3.824,3.639,8.839,5.643,14.116,5.643
		c5.588,0,10.999-2.322,14.851-6.371c3.771-3.965,5.771-9.162,5.635-14.633c-0.138-5.471-2.398-10.561-6.365-14.332l-10.288-9.783
		C495.381,197.59,504.544,207.932,504.544,220.373z M510.355,65.307c5.096,11.217,3.527,30.401-0.101,38.14
		c-9.121-1.549-16.087-9.509-16.087-19.065C494.168,74.8,501.171,66.824,510.355,65.307z M345.987,66.25
		c17.977,0,34.674,7.672,46.349,21.172c-6.787,17.605-20.053,23.68-23.875,26.977l-56.402-21.558l-12.864-4.917
		C310.775,74.22,327.729,66.25,345.987,66.25L345.987,66.25z M255.36,173.783c-0.104,0.652-0.206,1.367-0.289,2.113l-60.098,36.977
		c-0.021,0.014-0.043,0.027-0.065,0.041l-20.237,12.451c-3.288,1.982-7.58,0.922-9.562-2.367c-0.996-1.652-1.261-3.586-0.752-5.445
		c0.475-1.729,1.583-3.193,3.172-4.15l21.211-13.047c0.019-0.014,0.039-0.023,0.057-0.035l31.639-19.463
		c0.012-0.008,0.024-0.016,0.038-0.021l24.078-14.812L255.36,173.783z M153.527,229.979c3.839,6.367,10.613,9.896,17.569,9.896
		c3.617,0,7.282-0.955,10.61-2.961l6.75-4.152c-4.306,7.484-12.379,12.537-21.616,12.537c-13.742,0-24.924-11.182-24.924-24.924
		c0-13.744,11.182-24.926,24.924-24.926c1.225,0,2.436,0.096,3.628,0.27l-9.971,6.135c-4.522,2.725-7.781,7.031-9.179,12.121
		C149.837,219.359,150.644,225.193,153.527,229.979L153.527,229.979z M227.715,220.373c0,33.564-27.308,60.875-60.874,60.875
		c-33.568,0-60.877-27.309-60.877-60.875s27.309-60.877,60.875-60.877c14.4,0,28.289,5.16,39.202,14.338l-20.788,12.787
		c-5.626-3.082-11.912-4.697-18.414-4.697c-21.2,0-38.447,17.248-38.447,38.449c0,21.199,17.248,38.447,38.447,38.447
		c20.508,0,37.314-16.139,38.392-36.385l21.445-13.191C227.36,212.906,227.715,216.627,227.715,220.373L227.715,220.373z
		 M386.604,264.117h-96.697c-11.868,0-21.523-9.654-21.523-21.523v-62.197c0-14.059,10.354-25.592,23.553-27.76
		c12.056-2.01,39.101,5.215,69.241-16.381c21.318-15.277,40.662-25.029,46.653-53.675c2.322-11.102,1.564-22.475-2.057-33.021h8.01
		c3.735,0,6.762-3.027,6.762-6.761c0-3.734-3.026-6.761-6.762-6.761h-14.497l-7.086-11.91c-1.222-2.052,0.094-4.753,2.509-4.926
		c42.136-3.013,79.356,9.334,106.024,34.906c-11.794,4.994-20.089,16.686-20.089,30.277c0,13.198,7.824,24.596,19.074,29.818
		l-11.975,10.37c-4.117-0.521-8.279-0.783-12.414-0.783c-54.093,0-98.204,43.935-98.204,98.205
		C377.127,236.66,380.379,251.02,386.604,264.117z M422.17,156.129l14.252,13.551c0.006,0.006,0.011,0.012,0.018,0.018
		l47.979,45.629c1.349,1.281,2.117,3.014,2.164,4.871c0.046,1.859-0.634,3.625-1.916,4.977c-1.329,1.395-3.121,2.164-5.052,2.164
		c-1.794,0-3.497-0.68-4.798-1.916l-47.97-45.619c-0.015-0.016-0.029-0.029-0.045-0.041l-14.728-14.006
		C415.174,162.279,418.548,159.057,422.17,156.129z"/>
	<path d="M323.229,226.367H303.81c-3.735,0-6.762,3.027-6.762,6.762s3.026,6.762,6.762,6.762h19.418
		c3.734,0,6.762-3.027,6.762-6.762S326.963,226.367,323.229,226.367z"/>
</g>
</svg>
