<?xml version="1.0" encoding="utf-8"?>
<!-- Generator: Adobe Illustrator 16.0.0, SVG Export Plug-In . SVG Version: 6.00 Build 0)  -->
<!DOCTYPE svg PUBLIC "-//W3C//DTD SVG 1.1//EN" "http://www.w3.org/Graphics/SVG/1.1/DTD/svg11.dtd">
<svg version="1.1" id="Capa_1" xmlns="http://www.w3.org/2000/svg" xmlns:xlink="http://www.w3.org/1999/xlink" x="0px" y="0px"
	 width="640px" height="300px" viewBox="0 0 640 300" enable-background="new 0 0 640 300" xml:space="preserve">
<g>
	<g>
		<path d="M179.144,295.61c36.537,0,66.147-29.615,66.147-66.146c0-2.293-0.117-4.554-0.348-6.787l26.652-4.68
			c0,0,0.902-1.202,7.473,5.38c2.81,2.81,6.631,3.165,10.119,2.71c6.2,2.096,20.222,6.128,36.417,6.128
			c12.564,0,26.404-2.445,38.777-10.152c18.864-11.766,30.021-33.18,33.398-63.471c8.308-9.161,16.96-16.309,25.438-21.875
			l7.284,21.696c-22.875,10.409-38.811,33.418-38.811,60.183c0,36.532,29.623,66.142,66.146,66.142
			c36.524,0,66.147-29.617,66.147-66.142c0-36.534-29.623-66.142-66.147-66.142c-4.983,0-9.827,0.595-14.499,1.644l-8.17-24.343
			c25.486-12.987,46.583-12.792,46.583-12.792l7.919,4.333l26.304,2.092c-15.844-18.38-78.32-15.1-78.32-15.1l13.312-2.24
			c0,0-0.45-14.35-8.672-31.987c-8.222-17.636-17.19-27.951-17.19-27.951c-0.821,0.926-1.356,2.017-1.78,3.146
			c0.146-12.141,0.305-24.282,1.237-36.405c0.015-0.168-0.045-0.284-0.054-0.438c0.298-1.246-0.098-2.588-1.619-3.332
			c-4.904-2.396-9.729-4.417-15.247-4.689c-1.501-0.073-2.876,1.09-3.259,2.486c-1.745,6.305-2.206,12.912-1.454,19.389
			c-0.543-1.099-1.071-2.192-1.667-3.275c-0.919-1.652-2.512-1.905-3.887-1.394c-1.547-0.266-3.305,0.331-3.991,2.207
			c-1.11,3.03-3.523,5.069-3.648,8.579c-0.197,5.519,6.213,9.104,10.271,11.312c0.768,0.42,1.534,0.44,2.26,0.304
			c1.995,8.079,2.657,16.424,2.167,24.993c-12.346,8.007-7.587,15.311-7.587,15.311l-2.241,3.81c0,0-11.665-16.589-49.775,8.073
			c-38.108,24.663-68.151,8.968-93.261,0c-25.108-8.969-117.479-11.205-117.479-11.205c45.439,6.873,65.467,44.239,65.467,44.239
			l-35.87-22.118c-15.846,1.498-11.662,18.235-11.662,18.235l66.064,40.354c12.853-4.785,27.499,9.563,27.499,9.563l13.751,24.218
			l-18.839,5.366c-9.782-24.315-33.536-41.501-61.355-41.501c-36.535,0-66.145,29.617-66.145,66.141S142.617,295.61,179.144,295.61z
			 M457.832,172.748c25.281,0,45.836,20.562,45.836,45.844c0,25.275-20.556,45.836-45.836,45.836s-45.836-20.561-45.836-45.836
			c0-17.772,10.181-33.187,25.01-40.788l14.408,42.936c0.952,2.83,3.59,4.621,6.418,4.621c0.707,0,1.435-0.12,2.147-0.351
			c3.543-1.197,5.454-5.029,4.272-8.579l-14.41-42.942C452.439,173.034,455.104,172.748,457.832,172.748z M410.886,38.089
			c2.062-1.609,4.054-3.182,5.948-4.839c-0.265,10.01-0.316,20.027-0.528,30.043c-1.798,0.662-3.423,1.332-4.918,2.003
			c0.179-9.041-0.926-17.875-3.456-26.389C408.89,39.05,409.935,38.821,410.886,38.089z M338.857,143.86
			c31.525-9.455,42.22,4.778,45.577,12.387c-2.782,26.398-11.856,44.718-27.164,54.295c-20.079,12.551-46.385,7.647-59.014,4.137
			C299.644,196.14,306.365,153.607,338.857,143.86z M179.144,183.629c18.487,0,34.402,11.018,41.651,26.807l-49.642,14.139
			l1.794,10.761l51.868-9.116c0.076,1.077,0.165,2.15,0.165,3.246c0,25.28-20.562,45.843-45.844,45.843
			c-25.279,0-45.839-20.562-45.839-45.843C133.304,204.189,153.873,183.629,179.144,183.629z"/>
		<path d="M376.227,167.925h-59.643l-9.867,42.153C366.809,221.282,376.227,167.925,376.227,167.925z"/>
	</g>
</g>
</svg>
