<?xml version="1.0" encoding="utf-8"?>
<!-- Generator: Adobe Illustrator 16.0.0, SVG Export Plug-In . SVG Version: 6.00 Build 0)  -->
<!DOCTYPE svg PUBLIC "-//W3C//DTD SVG 1.1//EN" "http://www.w3.org/Graphics/SVG/1.1/DTD/svg11.dtd">
<svg version="1.1" id="Layer_1" xmlns="http://www.w3.org/2000/svg" xmlns:xlink="http://www.w3.org/1999/xlink" x="0px" y="0px"
	 width="640px" height="300px" viewBox="0 0 640 300" enable-background="new 0 0 640 300" xml:space="preserve">
<g>
	<g>
		<g>
			<path fill="#393939" d="M574.357,531.869c-6.279-21.722-55.979-40.826-65.859-44.439c-10.607-3.885-37.818-13.193-63.967-16.625
				c-45.894-22.449-97.352-38.142-98.334-38.426c-0.824-0.177-21.176-4.443-78-4.443c-37.779,0-74.641,7.443-107.165,14.002
				c-17.032,3.437-33.106,6.703-47.379,8.462c-41.014,5.065-71.895,5.539-72.204,5.539c-2.449,0.035-4.643,1.538-5.552,3.823
				c-0.733,1.802-17.649,44.397-17.649,63.877c0,21.068,29.42,42.259,32.771,44.622c1.019,0.714,2.231,1.091,3.473,1.091h12.255
				c9.098,14.532,25.16,24.291,43.53,24.291c18.383,0,34.433-9.732,43.542-24.291h252.296c8.752,14.485,24.5,24.291,42.633,24.291
				s33.881-9.806,42.658-24.291h77.627c2.645,0,4.981-1.697,5.795-4.219C574.988,564.513,579.545,549.821,574.357,531.869z
				 M425.016,475.054c-10.571,2.218-22.184,3.601-34.924,4.243l0.326-0.595c0.838-1.551,0.994-3.425,0.365-5.104
				c-0.631-1.686-1.99-2.987-3.662-3.602l-18.281-6.467c-1.672-0.595-3.479-0.418-5.004,0.425c-1.527,0.854-2.605,2.333-2.971,4.062
				l-2.375,11.49c-30.975-1.018-65.383-5.15-103.426-10.399l16.668-28.995c51.895,0.169,71.314,4.029,71.445,4.029
				C343.689,444.295,384.26,456.67,425.016,475.054z M163.44,453.853c28.801-5.812,61.112-12.044,93.969-13.285l-15.358,26.729
				c-6.8-0.957-13.704-1.951-20.764-2.945c-21.189-3.012-42.809-6.104-65.241-9.006C158.5,454.846,160.961,454.35,163.44,453.853z
				 M110.279,581.484c-21.698,0-39.373-17.675-39.373-39.371c0-21.725,17.674-39.355,39.373-39.355
				c21.723,0,39.384,17.632,39.384,39.355C149.663,563.811,132.002,581.484,110.279,581.484z M448.75,581.484
				c-20.85,0-37.797-16.946-37.797-37.797c0-20.85,16.947-37.789,37.797-37.789c20.873,0,37.797,16.965,37.797,37.789
				C486.547,564.538,469.574,581.484,448.75,581.484z"/>
			<path fill="#393939" d="M110.279,517.057c13.849,0,25.074,11.226,25.074,25.08c0,13.844-11.225,25.068-25.074,25.068
				c-13.849,0-25.074-11.227-25.074-25.068C85.205,528.281,96.43,517.057,110.279,517.057z"/>
			<path fill="#393939" d="M448.75,518.62c13.855,0,25.08,11.224,25.08,25.067c0,13.854-11.225,25.081-25.08,25.081
				c-13.846,0-25.068-11.227-25.068-25.081C423.682,529.844,434.904,518.62,448.75,518.62z"/>
		</g>
	</g>
</g>
<path fill="#3844EA" d="M443.241,172.25c-9.114,0-17.599,2.413-25.197,6.314l-15.035-17.869c6.667-3.938,13.877-6.969,21.5-8.676
	c6.214-1.4,12.373-1.913,18.793-2.008c8.292,0.062,16.45-3.207,22.556-9.257c6.367-6.301,10.019-15.068,10.019-25.434
	c0-56.978-48.001-98.821-98.681-98.821h-12.57c-6.146,0-11.125,4.978-11.125,11.125s4.979,11.124,11.125,11.124h12.57
	c3.314,0,6.476,0.571,9.68,0.983v21.496c-6.46,0.585-12.544,2.585-18.301,5.265c-0.072-0.084-0.165-0.14-0.234-0.223
	c-9.132,4.27-17.004,10.948-22.706,19.501l-25.323,37.98c-1.737,2.596-4.476,4.346-7.572,4.824
	c-22.522,3.462-42.047,17.821-52.3,38.787c9.503,14.201,15.187,31.121,15.187,49.388h-22.991c0-36.808-29.941-66.75-66.75-66.75
	c-36.809,0-66.75,29.942-66.75,66.75s29.941,66.75,66.75,66.75c28.969,0,53.436-18.657,62.65-44.499h104.966
	c6.147,0,11.125-4.979,11.125-11.127c0-6.182,0.739-12.494,2.185-18.749c3.03-12.991,9.787-24.813,18.855-34.474l15.016,17.844
	c-8.033,9.645-13.062,21.877-13.062,35.379c0,30.671,24.955,55.626,55.625,55.626c30.669,0,55.625-24.955,55.625-55.626
	C498.866,197.206,473.91,172.25,443.241,172.25z M185.883,261.249c-24.541,0-44.5-19.958-44.5-44.499s19.959-44.5,44.5-44.5
	s44.5,19.959,44.5,44.5h-33.375c-6.139,0-11.125-4.984-11.125-11.124c0-6.147-4.978-11.127-11.125-11.127
	c-6.148,0-11.125,4.979-11.125,11.127c0,18.401,14.973,33.375,33.375,33.375h27.188
	C216.477,252.236,202.283,261.249,185.883,261.249z M443.241,261.249c-18.402,0-33.375-14.972-33.375-33.375
	c0-6.444,1.92-12.416,5.099-17.526l19.585,24.481c3.868,4.823,10.872,5.55,15.646,1.737c4.792-3.849,5.574-10.842,1.737-15.646
	l-19.561-24.452c3.424-1.189,7.042-1.971,10.869-1.971c18.402,0,33.375,14.973,33.375,33.375
	C476.616,246.277,461.645,261.249,443.241,261.249z"/>
<path fill="#3844EA" d="M308.061,102.021l19.06-28.592c6.094-9.143,14.084-16.571,23.16-22.339
	C338.07,43.38,323.998,38.75,309,38.75c-26.286,0-50.566,13.4-64.858,34.888l17.794,10.679
	C276.23,92.892,291.884,98.634,308.061,102.021z"/>
<path fill="#3844EA" d="M250.486,103.391L179.095,61h-48.837c-6.147,0-11.125,4.977-11.125,11.124
	c0,30.67,24.956,55.626,55.625,55.626c22.253,0,45.338,0.483,70.07,21.984c0.096-0.178,0.096-0.377,0.203-0.549
	c8.63-13.877,20.815-24.637,34.785-32.198C269.703,113.287,259.8,108.977,250.486,103.391z"/>
<path d="M725.614-0.734c0,16.575,13.482,30.059,30.059,30.059h4.922L746.504,62.63l204.492-40.903l-7.242-8.792
	c-1.897-2.31-4.736-3.65-7.729-3.65c-2.06,0-122.812,0-120.234,0c-5.533,0-10.021-4.486-10.021-10.02
	c0-5.535,4.486-10.02,10.021-10.02h96.369l-7.25-14.501c-1.703-3.395-5.166-5.538-8.963-5.538H882.1l-17.27-34.54
	c-1.701-3.395-5.164-5.538-8.963-5.538H755.673c-5.538,0-10.02,4.481-10.02,10.02s4.48,10.02,10.02,10.02h13.845l10.021,20.039
	h-43.903c-5.538,0-10.02,4.481-10.02,10.02L725.614-0.734L725.614-0.734z"/>
<path d="M1014.881,29.52L735.768,85.078c-17.582,3.513-32.024,16.263-37.698,33.277l-12.683,38.053
	c-1.026,3.062-0.509,6.418,1.37,9.031c1.888,2.61,4.912,4.158,8.131,4.158h250.325c34.432,0,64.189-24.647,69.855-58.611l11.662-70
	c0.538-3.248-0.548-6.556-2.916-8.845C1021.447,29.853,1018.109,28.884,1014.881,29.52L1014.881,29.52z M875.906,109.48
	c-5.533,0-10.021-4.485-10.021-10.02s4.486-10.02,10.021-10.02c5.535,0,10.02,4.485,10.02,10.02S881.439,109.48,875.906,109.48z
	 M915.984,109.48c-5.533,0-10.021-4.485-10.021-10.02s4.486-10.02,10.021-10.02s10.02,4.485,10.02,10.02
	S921.518,109.48,915.984,109.48z M956.062,109.48c-5.533,0-10.021-4.485-10.021-10.02s4.486-10.02,10.021-10.02
	s10.02,4.485,10.02,10.02S961.596,109.48,956.062,109.48z"/>
<g>
	<g>
		<path fill="#393939" d="M312.647-323.186c-6.56,0-10.425,3.631-10.425,11.714v31.043c0,8.082,3.867,11.713,10.425,11.713
			c6.561,0,10.544-3.631,10.544-11.713v-31.043C323.191-319.555,319.209-323.186,312.647-323.186z"/>
	</g>
</g>
<g>
	<g>
		<path fill="#393939" d="M379.3-323.186c-6.562,0-10.426,3.631-10.426,11.714v31.043c0,8.082,3.867,11.713,10.426,11.713
			c6.56,0,10.543-3.631,10.543-11.713v-31.043C389.843-319.555,385.861-323.186,379.3-323.186z"/>
	</g>
</g>
<g>
	<g>
		<path fill="#393939" d="M245.996-323.186c-6.56,0-10.425,3.631-10.425,11.714v31.043c0,8.082,3.867,11.713,10.425,11.713
			s10.544-3.631,10.544-11.713v-31.043C256.54-319.555,252.558-323.186,245.996-323.186z"/>
	</g>
</g>
<g>
	<g>
		<path fill="#393939" d="M406.315-393.258H-33.443c-30.392,0-55.12,24.727-55.12,55.12v86.273c0,30.396,24.729,55.123,55.12,55.123
			h439.759c30.394,0,55.122-24.729,55.122-55.123v-86.273C461.436-368.532,436.709-393.258,406.315-393.258z M41.447-375.284
			c6.619,0,11.983,5.365,11.983,11.983c0,6.618-5.364,11.983-11.983,11.983c-6.619,0-11.983-5.365-11.983-11.983
			C29.464-369.919,34.83-375.284,41.447-375.284z M19.943-254.656L2.842-283.707l-17.104,29.049c-0.82,1.289-2.46,1.875-4.334,1.875
			c-5.036,0-12.183-3.982-12.183-9.02c0-1.055,0.353-2.109,1.054-3.279l20.267-31.278l-19.447-31.161
			c-0.82-1.288-1.171-2.46-1.171-3.632c0-4.919,6.675-8.668,11.831-8.668c2.576,0,4.334,0.937,5.507,3.047l15.58,27.179
			l15.58-27.179c1.171-2.109,2.929-3.047,5.507-3.047c5.154,0,11.831,3.749,11.831,8.668c0,1.173-0.351,2.344-1.173,3.632
			L15.142-296.36l20.265,31.278c0.704,1.172,1.054,2.225,1.054,3.279c0,5.037-7.147,9.02-12.183,9.02
			C22.403-252.783,20.648-253.369,19.943-254.656z M41.447-213.52c-6.619,0-11.983-5.365-11.983-11.984
			c0-6.617,5.364-11.982,11.983-11.982c6.619,0,11.983,5.365,11.983,11.982C53.43-218.885,48.066-213.52,41.447-213.52z
			 M105.692-330.333L81.561-290.15c-0.236,0.35-0.469,0.936-0.469,1.637v29.406c0,3.746-4.569,5.621-9.138,5.621
			c-4.571,0-9.138-1.875-9.138-5.621v-29.406c0-0.701-0.233-1.287-0.469-1.637l-24.249-40.182c-0.235-0.468-0.235-0.937-0.235-1.288
			c0-4.334,7.38-7.497,12.418-7.497c2.929,0,3.984,1.173,5.273,3.397l16.399,30.105l16.282-30.105
			c1.174-2.224,2.345-3.397,5.271-3.397c5.038,0,12.418,3.164,12.418,7.497C105.927-331.271,105.927-330.801,105.692-330.333z
			 M162.741-253.484h-49.903c-3.749,0-5.271-1.992-5.271-4.805c0-1.873,0.703-4.217,1.991-6.443l33.036-58.455h-27.18
			c-3.514,0-5.505-3.749-5.505-7.966c0-3.866,1.64-7.965,5.505-7.965h45.22c3.513,0,5.269,1.992,5.269,4.804
			c0,1.873-0.703,4.099-1.991,6.443l-33.034,58.454h31.862c3.516,0,5.509,4.219,5.509,7.969
			C168.246-257.703,166.255-253.484,162.741-253.484z M274.815-280.428c0,20.147-12.652,27.645-28.817,27.645
			c-16.167,0-28.701-7.496-28.701-27.645v-31.043c0-20.149,12.534-27.646,28.701-27.646c16.165,0,28.817,7.497,28.817,27.646
			V-280.428z M283.948-280.428v-31.043c0-20.149,12.534-27.646,28.701-27.646c16.166,0,28.817,7.497,28.817,27.646v31.043
			c0,20.147-12.651,27.645-28.817,27.645C296.482-252.783,283.948-260.279,283.948-280.428z M331.425-213.52
			c-6.618,0-11.982-5.365-11.982-11.984c0-6.617,5.364-11.982,11.982-11.982c6.619,0,11.983,5.365,11.983,11.982
			C343.408-218.885,338.042-213.52,331.425-213.52z M331.425-351.319c-6.618,0-11.982-5.365-11.982-11.983
			c0-6.619,5.364-11.983,11.982-11.983c6.619,0,11.983,5.364,11.983,11.983C343.408-356.684,338.042-351.319,331.425-351.319z
			 M408.119-280.428c0,20.147-12.653,27.645-28.819,27.645s-28.7-7.496-28.7-27.645v-31.043c0-20.149,12.534-27.646,28.7-27.646
			s28.819,7.497,28.819,27.646V-280.428z"/>
	</g>
</g>
<g>
	<path fill="#393939" d="M680.654,294.523h370.716c15.908,0,28.929,13.014,28.929,28.946v191.054
		c0,15.934-13.021,28.952-28.929,28.952H680.654c-15.935,0.024-28.953-13.02-28.953-28.952V323.471
		C651.701,307.574,664.721,294.523,680.654,294.523z M676.072,453.106c1.942,0,3.512-1.595,3.512-3.511v-61.118
		c0-1.936-1.568-3.491-3.512-3.491c-1.916,0-3.484,1.568-3.484,3.491v61.118C672.562,451.537,674.131,453.106,676.072,453.106z
		 M1051.37,404.542c-7.991,0-14.54,6.484-14.54,14.476c0,7.998,6.549,14.484,14.54,14.484s14.488-6.486,14.488-14.484
		C1065.858,411.04,1059.361,404.542,1051.37,404.542z M697.607,314.676v208.687h329.115V314.676H697.607z"/>
</g>
</svg>
