<?xml version="1.0" encoding="iso-8859-1"?>
<!-- Generator: Adobe Illustrator 19.0.0, SVG Export Plug-In . SVG Version: 6.00 Build 0)  -->
<svg version="1.1" id="Capa_1" xmlns="http://www.w3.org/2000/svg" xmlns:xlink="http://www.w3.org/1999/xlink" x="0px" y="0px"
	 viewBox="0 0 420.041 420.041" style="enable-background:new 0 0 420.041 420.041;" xml:space="preserve">
<g>
	<g>
		<circle cx="222.038" cy="341.667" r="5.632"/>
	</g>
</g>
<g>
	<g>
		<path d="M398.18,356.041c-12.288-8.192-26.624-1.536-34.816,4.096c-5.12-25.6-26.624-38.912-28.16-39.936
			c-24.064-13.824-44.544-3.584-52.224,4.096c-0.512,0.512-1.024,1.536-1.536,2.56c-5.12,27.648,12.8,43.008,23.552,47.104
			c2.56,1.536,24.576,11.776,48.128,4.096c-0.512,10.24,0.512,25.6,14.336,31.744c0.512,0.512,1.536,0.512,2.048,0.512
			c1.536,0,3.584-1.024,4.608-2.56s8.192-14.336,6.656-26.112c10.752-4.608,18.432-17.408,18.944-18.944
			C400.74,360.649,400.228,357.577,398.18,356.041z M309.092,364.745c-1.024-0.512-21.504-9.216-17.92-34.304
			c4.096-3.072,18.944-12.8,38.912-1.536c0,0,21.504,13.824,24.064,37.888C332.132,376.521,309.604,365.257,309.092,364.745z
			 M373.604,373.449c-1.536,0-3.072,1.024-4.096,2.56c-1.024,1.536-1.024,3.072,0,4.608c2.048,4.608,0,12.288-2.048,17.408
			c-6.144-7.168-4.096-20.48-3.584-25.088c3.584-3.072,14.336-11.264,23.552-9.728C384.356,367.305,378.724,372.937,373.604,373.449
			z"/>
	</g>
</g>
<g>
	<g>
		<circle cx="306.049" cy="335.551" r="5.632"/>
	</g>
</g>
<g>
	<g>
		<path d="M289.124,243.913c7.68,9.216,16.384,19.456,33.792,19.456s26.112-10.24,33.792-19.456
			c7.168-8.704,13.312-15.872,25.6-15.872c3.072,0,5.12-2.048,5.12-5.12c0-3.072-2.048-5.12-5.12-5.12
			c-17.408,0-26.112,10.24-33.792,19.456c-7.168,8.704-13.312,15.872-25.6,15.872s-18.432-7.168-25.6-15.872
			c-6.656-8.192-14.336-17.408-28.16-18.944v-25.6c8.704,2.048,14.336,8.192,19.968,15.36c7.68,9.216,16.384,19.456,33.792,19.456
			s26.112-10.24,33.792-19.456c7.168-8.704,13.312-15.872,25.6-15.872c3.072,0,5.12-2.048,5.12-5.12c0-3.072-2.048-5.12-5.12-5.12
			c-1.536,0-3.072,0-4.096,0.512c1.024-9.216,1.024-18.432,1.024-26.624c0-3.072-2.048-5.12-5.12-5.12H268.132V5.321
			c0-1.536-0.512-3.072-2.048-4.096c-1.024-1.024-3.072-1.536-4.608-1.024C119.14,35.017,85.86,114.889,79.716,133.321
			c-8.192,1.024-14.848,7.68-16.384,15.872H31.588c-3.072,0-5.12,2.048-5.12,5.12c0,0.512,0,0.512,0,1.024c0,0.512,0,0.512,0,1.024
			c0,8.192,0.512,16.384,1.024,24.576c-1.024,0-1.536,0-2.56,0c-3.072,0-5.12,2.048-5.12,5.12c0,3.072,2.048,5.12,5.12,5.12
			c12.288,0,18.432,7.168,25.6,15.872c7.68,9.216,16.384,19.456,33.792,19.456c17.408,0,26.112-10.24,33.792-19.456
			c7.168-8.704,13.312-15.872,25.6-15.872c12.288,0,18.432,7.168,25.6,15.872c7.68,9.216,16.384,19.456,33.792,19.456
			s26.112-10.24,33.792-19.456c6.144-7.168,11.776-13.824,20.992-15.36v25.6c-14.336,1.536-22.016,10.752-28.672,19.456
			c-7.168,8.704-13.312,15.872-25.6,15.872s-18.432-7.168-25.6-15.872c-7.68-9.216-16.384-19.456-33.792-19.456
			c-17.408,0-26.112,10.24-33.792,19.456c-7.168,8.704-13.312,15.872-25.6,15.872c-12.288,0-18.432-7.168-25.6-15.872
			c-7.68-9.216-16.384-19.456-33.792-19.456c-3.072,0-5.12,2.048-5.12,5.12c0,3.072,2.048,5.12,5.12,5.12
			c12.288,0,18.432,7.168,25.6,15.872c7.68,9.216,16.384,19.456,33.792,19.456c17.408,0,26.112-10.24,33.792-19.456
			c7.168-8.704,13.312-15.872,25.6-15.872s18.432,7.168,25.6,15.872c7.68,9.216,16.384,19.456,33.792,19.456
			c17.408,0,26.112-10.24,33.792-19.456c6.144-7.168,11.776-13.824,20.992-15.36v25.6c-14.336,1.536-22.016,10.752-28.672,19.456
			c-7.168,8.704-13.312,15.872-25.6,15.872c-12.288,0-18.432-7.168-25.6-15.872c-7.68-9.216-16.384-19.456-33.792-19.456
			s-26.112,10.24-33.792,19.456c-7.168,8.704-13.312,15.872-25.6,15.872c-12.288,0-18.432-7.168-25.6-15.872
			c-7.68-9.216-16.384-19.456-33.792-19.456c-3.072,0-5.12,2.048-5.12,5.12c0,3.072,2.048,5.12,5.12,5.12
			c11.776-0.512,17.92,6.656,25.088,15.36c7.68,9.216,16.384,19.456,33.792,19.456s26.112-10.24,33.792-19.456
			c7.168-8.704,13.312-15.872,25.6-15.872c12.288,0,18.432,7.168,25.6,15.872c7.68,9.216,16.384,19.456,33.792,19.456
			s26.112-10.24,33.792-19.456c6.144-7.168,11.776-13.824,20.992-15.36v18.944c-5.632,2.048-9.728,7.168-9.728,13.312
			s4.096,11.264,9.728,13.312v6.144v0.512v0.512c0,5.632-4.608,9.728-9.728,9.728c-5.632,0-9.728-4.608-9.728-9.728
			c0-3.072-2.048-5.12-5.12-5.12c-3.072,0-5.12,2.048-5.12,5.12c-18.432-6.144-34.304,2.56-40.96,9.216
			c-2.56,2.048-20.48,17.92-22.016,43.008c-9.216-4.608-24.064-9.216-34.816,1.024c-2.048,1.536-2.048,4.608-0.512,6.656
			c1.024,1.536,10.24,13.312,21.504,16.384c0,11.776,8.704,23.552,10.24,25.088c1.024,1.024,2.56,2.048,4.096,2.048
			c1.024,0,2.048,0,2.56-1.024c12.8-7.68,11.776-23.552,9.728-33.28c25.6,5.12,46.592-9.728,47.616-10.752
			c15.36-11.776,19.456-27.136,18.944-38.4c1.536,0.512,2.56,0.512,4.096,0.512c11.264,0,19.968-9.216,19.968-19.968v-0.512v-0.512
			v-7.168c4.608-2.048,8.192-7.168,8.192-12.8c0-5.632-3.072-10.24-8.192-12.8v-18.944c8.704,2.048,14.336,8.192,19.968,15.36
			c7.68,9.216,16.384,19.456,33.792,19.456s26.112-10.24,33.792-19.456c7.168-8.704,13.312-15.872,25.6-15.872
			c3.072,0,5.12-2.048,5.12-5.12c0-3.072-2.048-5.12-5.12-5.12c-17.408,0-26.112,10.24-33.792,19.456
			c-7.168,8.704-13.312,15.872-25.6,15.872s-18.432-7.168-25.6-15.872c-6.656-8.192-14.336-17.408-28.16-18.944v-25.6
			C277.86,230.601,283.492,236.745,289.124,243.913z M82.276,144.073c3.584,0,7.168,2.56,8.192,6.144H74.084
			C75.108,146.121,78.692,144.073,82.276,144.073z M257.38,181.449c-13.824,1.536-21.504,10.752-28.672,19.456
			c-7.168,8.704-13.312,15.872-25.6,15.872c-12.288,0-18.432-7.168-25.6-15.872c-7.68-9.216-16.384-19.456-33.792-19.456
			c-17.408,0-26.112,10.24-33.792,19.456c-7.168,8.704-13.312,15.872-25.6,15.872c-12.288,0-18.432-7.168-25.6-15.872
			c-5.632-6.656-11.264-13.824-20.48-17.408c-0.512-7.68-1.024-15.36-1.024-23.552h220.16V181.449z M257.38,149.705H100.708
			c-1.024-6.656-5.12-11.776-10.752-14.336c3.072-8.192,10.752-26.112,28.672-46.08c22.016-24.576,63.488-57.856,138.752-77.312
			V149.705z M165.732,406.729c-3.072-4.608-6.144-11.776-4.096-16.896c0.512-1.536,0-3.584-1.024-4.608
			c-1.024-1.024-2.56-2.048-4.096-2.048c0,0,0,0-0.512,0c-5.12,0.512-11.264-4.608-15.36-8.704
			c8.704-3.072,20.992,4.096,24.576,6.656C166.756,385.225,170.852,398.537,165.732,406.729z M218.468,366.281
			c0,0-20.992,14.848-44.032,7.68c-1.024-24.064,18.432-40.448,18.944-40.96c0.512-0.512,16.896-15.872,38.4-3.072
			C233.316,335.049,236.9,352.457,218.468,366.281z M267.62,180.937v-21.504h99.84v0.512c0,7.68-0.512,15.872-1.536,24.064
			c-8.192,3.584-13.824,10.24-18.944,16.384c-7.168,8.704-13.312,15.872-25.6,15.872c-12.288,0-18.432-7.168-25.6-15.872
			C289.124,192.201,281.444,182.985,267.62,180.937z"/>
	</g>
</g>
<g>
</g>
<g>
</g>
<g>
</g>
<g>
</g>
<g>
</g>
<g>
</g>
<g>
</g>
<g>
</g>
<g>
</g>
<g>
</g>
<g>
</g>
<g>
</g>
<g>
</g>
<g>
</g>
<g>
</g>
</svg>
