<?xml version="1.0" encoding="utf-8"?>
<!-- Generator: Adobe Illustrator 16.0.0, SVG Export Plug-In . SVG Version: 6.00 Build 0)  -->
<!DOCTYPE svg PUBLIC "-//W3C//DTD SVG 1.1//EN" "http://www.w3.org/Graphics/SVG/1.1/DTD/svg11.dtd">
<svg version="1.1" id="Layer_1" xmlns="http://www.w3.org/2000/svg" xmlns:xlink="http://www.w3.org/1999/xlink" x="0px" y="0px"
	 width="640px" height="300px" viewBox="0 0 640 300" enable-background="new 0 0 640 300" xml:space="preserve">
<g>
	<g>
		<path d="M469.211,134.803c-0.795-1.24-2.09-2.065-3.545-2.26l-75-10c-2.705-0.355-5.25,1.56-5.619,4.295
			c-0.37,2.735,1.559,5.255,4.295,5.62l10.659,1.42v12.7l-25-2.68v-24.885l9.16-13.741c1-1.5,1.114-3.42,0.306-5.025
			c-0.815-1.61-2.431-2.66-4.23-2.745l-105-5c-1.685-0.016-3.32,0.71-4.305,2.09l-25,35c-0.1,0.14-0.12,0.31-0.205,0.455
			l-70.195-7.519c-1.42-0.15-2.82,0.305-3.875,1.25c-1.05,0.951-1.655,2.3-1.655,3.72c0,44.11,51.59,80,115,80h160.001
			c2.194,0,4.135-1.431,4.779-3.531l20-65C470.211,137.563,470.001,136.038,469.211,134.803z M410.001,147.498v-12.29l20,2.665
			v11.915l-20.03-2.145C409.971,147.593,410.001,147.548,410.001,147.498z M324.716,104.873l46.229,2.2l-5.105,7.65
			c-0.545,0.82-0.84,1.79-0.84,2.775v25.33l-45.02-4.825L324.716,104.873z M277.485,102.623l37.195,1.77l-4.63,32.395
			c-0.005,0.05,0.015,0.1,0.01,0.15l-53.03-5.68L277.485,102.623z M441.306,197.498H285c-44.19,0-82.04-18.315-97.51-44.141
			l258.556,28.73L441.306,197.498z M449.041,172.363l-266.406-29.601c-1.06-3.155-1.91-6.365-2.3-9.66l271.827,29.12
			L449.041,172.363z M455.156,152.488l-15.155-1.625v-11.656l18.485,2.465L455.156,152.488z"/>
	</g>
</g>
<g>
	<defs>
		<rect id="SVGID_1_" x="156.5" y="209.498" width="325" height="49.693"/>
	</defs>
	<clipPath id="SVGID_2_">
		<use xlink:href="#SVGID_1_"  overflow="visible"/>
	</clipPath>
	<path clip-path="url(#SVGID_2_)" d="M454.051,285.674v-56.965c0-7.9-6.426-14.327-14.326-14.327h-79.559
		c-0.001,0.002-0.001,0.002-0.002,0h-59.405c-0.003,0-0.003,0-0.003,0l-89.105,0.002c-0.001-0.002-0.003,0-0.004-0.002h-0.002
		h-20.162c-7.899,0-14.326,6.427-14.326,14.327v56.965c0.001,3.95,1.606,7.53,4.201,10.124c2.593,2.594,6.175,4.201,10.125,4.202
		h30.767c2.638,0,4.775-2.138,4.775-4.775s-2.137-4.775-4.775-4.775h-30.767c-2.633,0.001-4.776-2.141-4.775-4.775v-56.965
		c-0.001-2.634,2.142-4.777,4.775-4.775h15.389v22.394c0,1.319,0.536,2.512,1.399,3.375c0.863,0.864,2.057,1.399,3.375,1.398
		c2.638,0,4.775-2.138,4.776-4.776v-22.393h20.153v7.904c0,1.319,0.535,2.513,1.398,3.378c0.863,0.863,2.058,1.397,3.377,1.397
		c2.637,0,4.774-2.139,4.775-4.775v-7.904h20.154v22.393c0,1.319,0.534,2.513,1.399,3.378c0.863,0.864,2.058,1.397,3.376,1.397
		c2.636,0.001,4.774-2.138,4.773-4.774l0.001-22.394h20.153v7.904c0,1.319,0.534,2.513,1.398,3.378
		c0.864,0.863,2.058,1.397,3.375,1.397c2.638,0,4.776-2.139,4.776-4.775l0.001-7.904h20.153l-0.001,22.384
		c0,1.318,0.534,2.513,1.398,3.378c0.864,0.863,2.058,1.397,3.376,1.397c2.638,0,4.775-2.138,4.775-4.775V223.93h20.153v7.906
		c0,1.318,0.534,2.512,1.399,3.375c0.864,0.866,2.057,1.4,3.376,1.4c2.638,0,4.775-2.139,4.775-4.775v-7.906h20.153v22.394
		c0.001,1.32,0.535,2.514,1.4,3.377c0.863,0.863,2.057,1.399,3.375,1.397c2.636,0,4.774-2.137,4.774-4.774V223.93h20.154v7.906
		c0,1.318,0.534,2.512,1.398,3.375c0.862,0.864,2.058,1.4,3.376,1.4c2.637-0.003,4.774-2.141,4.775-4.775v-7.902h15.377
		c2.633,0,4.775,2.143,4.775,4.775v56.965c0,2.632-2.143,4.775-4.775,4.775H260.452c-2.637,0-4.775,2.138-4.775,4.775
		s2.138,4.775,4.775,4.775h179.273C447.625,300,454.051,293.572,454.051,285.674z"/>
</g>
</svg>
