<?xml version="1.0" encoding="utf-8"?>
<!-- Generator: Adobe Illustrator 16.0.0, SVG Export Plug-In . SVG Version: 6.00 Build 0)  -->
<!DOCTYPE svg PUBLIC "-//W3C//DTD SVG 1.1//EN" "http://www.w3.org/Graphics/SVG/1.1/DTD/svg11.dtd">
<svg version="1.1" id="Layer_1" xmlns="http://www.w3.org/2000/svg" xmlns:xlink="http://www.w3.org/1999/xlink" x="0px" y="0px"
	 width="250px" height="250px" viewBox="0 0 250 250" enable-background="new 0 0 250 250" xml:space="preserve">
<g>
	<circle fill="#3C5A99" cx="428.689" cy="111.338" r="111.354"/>
	<path fill="#A2B1CE" d="M426.417,117.656c-0.073-0.534-0.146-1.068-0.223-1.601c0.215-3.256-0.26-6.609,1.408-9.654
		c0.525,0.453,1.052,0.908,1.577,1.358c3.484,2.883,0.562,6.635,1.345,9.883c-0.446,0.024-0.895,0.041-1.345,0.046
		C428.261,117.678,427.339,117.667,426.417,117.656z"/>
	<path fill="#E8ECF3" d="M431.17,109.471c-0.729,1.816-1.461,3.633-2.19,5.452c-0.979-1.92-6.274-3.829-0.009-5.756
		C429.706,109.268,430.438,109.37,431.17,109.471z"/>
	<path fill="#A7B5D1" d="M426.563,106.371c0.922,0.008,1.841,0.02,2.763,0.03c0.45,1.416,0.903,2.827,1.353,4.243
		c-1.504,0.995-0.064,1.887,0.101,2.82c-0.487,0.49-0.976,0.98-1.464,1.469c-1.169,0.575-1.396,1.627-1.412,2.784
		C425.091,114.215,427.057,110.146,426.563,106.371z"/>
	<path fill-rule="evenodd" clip-rule="evenodd" fill="#FFFFFF" d="M410.236,112.6v68.203c0,0.981,0.794,1.775,1.775,1.775h25.329
		c0.981,0,1.776-0.794,1.776-1.775V111.49h18.36c0.923,0,1.692-0.71,1.771-1.627l1.765-20.885c0.086-1.037-0.729-1.927-1.771-1.927
		h-20.126V72.234c0-3.471,2.813-6.288,6.287-6.288h14.15c0.981,0,1.776-0.795,1.776-1.776V43.287c0-0.981-0.795-1.777-1.776-1.777
		h-23.911c-14.031,0-25.407,11.375-25.407,25.408v20.134h-12.662c-0.982,0-1.778,0.796-1.778,1.776v20.883
		c0,0.982,0.796,1.779,1.778,1.779h12.662V112.6z"/>
</g>
<g>
	<linearGradient id="SVGID_1_" gradientUnits="userSpaceOnUse" x1="30.7651" y1="219.4062" x2="270.2958" y2="-20.1244">
		<stop  offset="0.0011" style="stop-color:#FBE18A"/>
		<stop  offset="0.2094" style="stop-color:#FCBB45"/>
		<stop  offset="0.3765" style="stop-color:#F75274"/>
		<stop  offset="0.5238" style="stop-color:#D53692"/>
		<stop  offset="0.7394" style="stop-color:#8F39CE"/>
		<stop  offset="1" style="stop-color:#5B4FE9"/>
	</linearGradient>
	<circle fill="url(#SVGID_1_)" cx="125.28" cy="124.892" r="110.837"/>
	<g>
		<circle fill="#FFFFFF" cx="164.518" cy="86.291" r="8.611"/>
		<path fill="#FFFFFF" d="M126.235,88.723c-19.944,0-36.171,16.226-36.171,36.169c0,19.945,16.227,36.172,36.171,36.172
			c19.943,0,36.172-16.227,36.172-36.172C162.407,104.949,146.179,88.723,126.235,88.723z M126.235,148.062
			c-12.776,0-23.168-10.396-23.168-23.171c0-12.775,10.392-23.169,23.168-23.169c12.775,0,23.169,10.394,23.169,23.169
			C149.404,137.667,139.011,148.062,126.235,148.062z"/>
		<g>
			<path fill="#FFFFFF" d="M154.951,198.33H96.312c-24.328,0-44.117-19.792-44.117-44.116V95.572
				c0-24.327,19.79-44.117,44.117-44.117h58.639c24.326,0,44.118,19.79,44.118,44.117v58.642
				C199.069,178.538,179.277,198.33,154.951,198.33z M96.312,65.272c-16.709,0-30.3,13.592-30.3,30.3v58.642
				c0,16.709,13.591,30.3,30.3,30.3h58.639c16.708,0,30.3-13.591,30.3-30.3V95.572c0-16.708-13.592-30.3-30.3-30.3H96.312z"/>
		</g>
	</g>
</g>
<g>
</g>
<g>
</g>
<g>
</g>
<g>
</g>
<g>
</g>
<g>
</g>
</svg>
