<?xml version="1.0" encoding="utf-8"?>
<!-- Generator: Adobe Illustrator 16.0.0, SVG Export Plug-In . SVG Version: 6.00 Build 0)  -->
<!DOCTYPE svg PUBLIC "-//W3C//DTD SVG 1.1//EN" "http://www.w3.org/Graphics/SVG/1.1/DTD/svg11.dtd">
<svg version="1.1" id="Layer_1" xmlns="http://www.w3.org/2000/svg" xmlns:xlink="http://www.w3.org/1999/xlink" x="0px" y="0px"
	 width="640px" height="300px" viewBox="0 0 640 300" enable-background="new 0 0 640 300" xml:space="preserve">
<g>
	<g>
		<g>
			<path d="M604.701-117.131c-6.279-21.722-55.979-40.827-65.859-44.439c-10.606-3.885-37.817-13.195-63.967-16.625
				c-45.893-22.45-97.352-38.142-98.334-38.426c-0.824-0.176-21.176-4.443-77.999-4.443c-37.779,0-74.641,7.443-107.165,14.001
				c-17.032,3.436-33.106,6.704-47.379,8.461c-41.014,5.066-71.895,5.54-72.204,5.54c-2.449,0.036-4.643,1.54-5.552,3.824
				c-0.733,1.8-17.649,44.397-17.649,63.877c0,21.068,29.42,42.258,32.771,44.622c1.019,0.714,2.231,1.09,3.473,1.09h12.255
				c9.098,14.533,25.16,24.292,43.53,24.292c18.383,0,34.433-9.733,43.542-24.292H436.46c8.752,14.486,24.5,24.292,42.633,24.292
				s33.881-9.806,42.658-24.292h77.627c2.646,0,4.982-1.697,5.795-4.218C605.332-84.487,609.889-99.179,604.701-117.131z
				 M455.359-173.946c-10.572,2.218-22.185,3.6-34.925,4.243l0.326-0.595c0.838-1.551,0.994-3.424,0.365-5.103
				c-0.631-1.685-1.99-2.988-3.662-3.601l-18.281-6.467c-1.672-0.593-3.479-0.418-5.003,0.425c-1.527,0.854-2.605,2.333-2.972,4.061
				l-2.375,11.491c-30.976-1.018-65.383-5.152-103.426-10.4l16.668-28.996c51.895,0.169,71.313,4.03,71.444,4.03
				C374.033-204.706,414.604-192.33,455.359-173.946z M193.784-195.147c28.801-5.812,61.112-12.044,93.969-13.286l-15.358,26.729
				c-6.8-0.957-13.704-1.951-20.764-2.945c-21.189-3.012-42.809-6.103-65.241-9.006
				C188.844-194.154,191.305-194.651,193.784-195.147z M140.623-67.516c-21.698,0-39.373-17.674-39.373-39.371
				c0-21.724,17.674-39.355,39.373-39.355c21.723,0,39.384,17.631,39.384,39.355C180.007-85.189,162.346-67.516,140.623-67.516z
				 M479.094-67.516c-20.85,0-37.797-16.946-37.797-37.796s16.947-37.79,37.797-37.79c20.873,0,37.797,16.965,37.797,37.79
				C516.891-84.462,499.918-67.516,479.094-67.516z"/>
			<path d="M140.623-131.943c13.849,0,25.074,11.225,25.074,25.08c0,13.843-11.225,25.068-25.074,25.068
				s-25.074-11.226-25.074-25.068C115.549-120.719,126.774-131.943,140.623-131.943z"/>
			<path d="M479.094-130.38c13.855,0,25.08,11.224,25.08,25.068c0,13.854-11.225,25.081-25.08,25.081
				c-13.846,0-25.067-11.227-25.067-25.081C454.025-119.156,465.248-130.38,479.094-130.38z"/>
		</g>
	</g>
</g>
<path d="M971.241-249.461c-9.114,0-17.599,2.413-25.197,6.315l-15.035-17.869c6.667-3.939,13.877-6.97,21.5-8.677
	c6.214-1.4,12.373-1.912,18.793-2.008c8.292,0.062,16.45-3.207,22.556-9.257c6.367-6.301,10.019-15.068,10.019-25.434
	c0-56.978-48.001-98.821-98.68-98.821h-12.571c-6.146,0-11.125,4.978-11.125,11.125s4.979,11.124,11.125,11.124h12.571
	c3.313,0,6.475,0.571,9.679,0.983v21.496c-6.46,0.585-12.544,2.585-18.301,5.265c-0.072-0.084-0.165-0.14-0.234-0.223
	c-9.132,4.27-17.004,10.948-22.706,19.501l-25.323,37.98c-1.736,2.596-4.476,4.346-7.571,4.824
	c-22.522,3.462-42.047,17.821-52.3,38.787c9.503,14.202,15.187,31.121,15.187,49.388h-22.991c0-36.808-29.94-66.75-66.75-66.75
	c-36.809,0-66.75,29.942-66.75,66.75s29.941,66.75,66.75,66.75c28.969,0,53.437-18.657,62.65-44.499h104.966
	c6.148,0,11.125-4.979,11.125-11.127c0-6.182,0.739-12.494,2.185-18.749c3.03-12.991,9.787-24.814,18.855-34.474l15.016,17.844
	c-8.033,9.645-13.062,21.877-13.062,35.379c0,30.671,24.955,55.626,55.625,55.626c30.669,0,55.625-24.955,55.625-55.626
	C1026.866-224.505,1001.91-249.461,971.241-249.461z M713.883-160.462c-24.541,0-44.5-19.958-44.5-44.499s19.959-44.5,44.5-44.5
	s44.5,19.959,44.5,44.5h-33.375c-6.139,0-11.125-4.985-11.125-11.124c0-6.148-4.978-11.127-11.125-11.127
	s-11.125,4.979-11.125,11.127c0,18.402,14.974,33.375,33.375,33.375h27.188C744.477-169.474,730.283-160.462,713.883-160.462z
	 M971.241-160.462c-18.402,0-33.375-14.972-33.375-33.375c0-6.445,1.92-12.416,5.099-17.526l19.585,24.481
	c3.868,4.823,10.872,5.55,15.646,1.737c4.792-3.848,5.575-10.841,1.737-15.645l-19.561-24.452c3.424-1.19,7.042-1.971,10.869-1.971
	c18.403,0,33.375,14.973,33.375,33.375C1004.616-175.434,989.645-160.462,971.241-160.462z"/>
<path d="M836.061-319.69l19.061-28.592c6.094-9.143,14.084-16.571,23.16-22.339c-12.209-7.709-26.282-12.339-41.28-12.339
	c-26.286,0-50.566,13.4-64.858,34.888l17.794,10.679C804.23-328.819,819.884-323.077,836.061-319.69z"/>
<path d="M778.486-318.32l-71.393-42.391h-48.837c-6.146,0-11.125,4.977-11.125,11.124c0,30.67,24.956,55.626,55.625,55.626
	c22.253,0,45.338,0.483,70.07,21.984c0.096-0.178,0.096-0.377,0.203-0.549c8.63-13.877,20.814-24.637,34.785-32.198
	C797.703-308.424,787.8-312.734,778.486-318.32z"/>
<path d="M725.614-0.734c0,16.575,13.482,30.059,30.059,30.059h4.922L746.504,62.63l204.492-40.903l-7.242-8.792
	c-1.897-2.31-4.736-3.65-7.729-3.65c-2.06,0-122.812,0-120.234,0c-5.533,0-10.021-4.486-10.021-10.02
	c0-5.535,4.486-10.02,10.021-10.02h96.369l-7.25-14.501c-1.703-3.395-5.166-5.538-8.963-5.538H882.1l-17.27-34.54
	c-1.701-3.395-5.164-5.538-8.963-5.538H755.673c-5.538,0-10.02,4.481-10.02,10.02s4.48,10.02,10.02,10.02h13.845l10.021,20.039
	h-43.903c-5.538,0-10.02,4.481-10.02,10.02L725.614-0.734L725.614-0.734z"/>
<path d="M1014.881,29.52L735.768,85.078c-17.582,3.513-32.024,16.263-37.698,33.277l-12.683,38.053
	c-1.026,3.062-0.509,6.418,1.37,9.031c1.888,2.61,4.912,4.158,8.131,4.158h250.325c34.432,0,64.189-24.647,69.855-58.611l11.662-70
	c0.538-3.248-0.548-6.556-2.916-8.845C1021.447,29.853,1018.109,28.884,1014.881,29.52L1014.881,29.52z M875.906,109.48
	c-5.533,0-10.021-4.485-10.021-10.02s4.486-10.02,10.021-10.02c5.535,0,10.02,4.485,10.02,10.02S881.439,109.48,875.906,109.48z
	 M915.984,109.48c-5.533,0-10.021-4.485-10.021-10.02s4.486-10.02,10.021-10.02s10.02,4.485,10.02,10.02
	S921.518,109.48,915.984,109.48z M956.062,109.48c-5.533,0-10.021-4.485-10.021-10.02s4.486-10.02,10.021-10.02
	s10.02,4.485,10.02,10.02S961.596,109.48,956.062,109.48z"/>
<g>
	<g>
		<path d="M353.646-398.42c-6.56,0-10.424,3.631-10.424,11.714v31.043c0,8.082,3.866,11.713,10.424,11.713
			c6.562,0,10.545-3.631,10.545-11.713v-31.043C364.191-394.789,360.209-398.42,353.646-398.42z"/>
	</g>
</g>
<g>
	<g>
		<path d="M420.3-398.42c-6.561,0-10.426,3.631-10.426,11.714v31.043c0,8.082,3.867,11.713,10.426,11.713
			c6.561,0,10.543-3.631,10.543-11.713v-31.043C430.843-394.789,426.861-398.42,420.3-398.42z"/>
	</g>
</g>
<g>
	<g>
		<path d="M286.996-398.42c-6.56,0-10.425,3.631-10.425,11.714v31.043c0,8.082,3.867,11.713,10.425,11.713
			s10.544-3.631,10.544-11.713v-31.043C297.54-394.789,293.558-398.42,286.996-398.42z"/>
	</g>
</g>
<g>
	<g>
		<path d="M447.315-468.493H7.557c-30.392,0-55.12,24.727-55.12,55.12v86.273c0,30.394,24.729,55.122,55.12,55.122h439.759
			c30.394,0,55.122-24.729,55.122-55.122v-86.273C502.436-443.766,477.709-468.493,447.315-468.493z M82.447-450.519
			c6.619,0,11.983,5.365,11.983,11.983s-5.364,11.983-11.983,11.983c-6.619,0-11.983-5.365-11.983-11.983
			C70.464-445.153,75.83-450.519,82.447-450.519z M60.943-329.89l-17.102-29.052l-17.104,29.05c-0.82,1.289-2.46,1.875-4.334,1.875
			c-5.036,0-12.183-3.983-12.183-9.021c0-1.054,0.353-2.108,1.054-3.279l20.267-31.278l-19.447-31.161
			c-0.82-1.288-1.171-2.46-1.171-3.632c0-4.919,6.675-8.668,11.831-8.668c2.576,0,4.334,0.937,5.507,3.047l15.58,27.179
			l15.58-27.179c1.171-2.109,2.929-3.047,5.507-3.047c5.154,0,11.831,3.749,11.831,8.668c0,1.173-0.351,2.344-1.173,3.632
			l-19.445,31.161l20.265,31.278c0.704,1.173,1.054,2.226,1.054,3.279c0,5.037-7.147,9.021-12.183,9.021
			C63.403-328.017,61.648-328.603,60.943-329.89z M82.447-288.754c-6.619,0-11.983-5.364-11.983-11.983
			c0-6.617,5.364-11.982,11.983-11.982c6.619,0,11.983,5.365,11.983,11.982C94.43-294.119,89.066-288.754,82.447-288.754z
			 M146.692-405.567l-24.132,40.182c-0.236,0.351-0.469,0.936-0.469,1.638v29.405c0,3.747-4.569,5.621-9.138,5.621
			c-4.571,0-9.138-1.874-9.138-5.621v-29.405c0-0.702-0.233-1.287-0.469-1.638l-24.249-40.182c-0.235-0.468-0.235-0.937-0.235-1.288
			c0-4.334,7.38-7.497,12.418-7.497c2.929,0,3.984,1.173,5.273,3.397l16.399,30.106l16.282-30.106
			c1.174-2.224,2.345-3.397,5.271-3.397c5.038,0,12.418,3.164,12.418,7.497C146.927-406.505,146.927-406.035,146.692-405.567z
			 M203.741-328.719h-49.903c-3.749,0-5.271-1.992-5.271-4.804c0-1.874,0.703-4.218,1.991-6.443l33.036-58.455h-27.18
			c-3.514,0-5.505-3.749-5.505-7.966c0-3.866,1.64-7.965,5.505-7.965h45.22c3.513,0,5.269,1.992,5.269,4.804
			c0,1.873-0.703,4.099-1.991,6.443l-33.034,58.454h31.862c3.516,0,5.509,4.219,5.509,7.968
			C209.246-332.937,207.255-328.719,203.741-328.719z M315.815-355.663c0,20.149-12.652,27.646-28.817,27.646
			c-16.167,0-28.701-7.496-28.701-27.646v-31.043c0-20.149,12.534-27.646,28.701-27.646c16.165,0,28.817,7.497,28.817,27.646
			V-355.663z M324.948-355.663v-31.043c0-20.149,12.534-27.646,28.7-27.646s28.817,7.497,28.817,27.646v31.043
			c0,20.149-12.651,27.646-28.817,27.646S324.948-335.513,324.948-355.663z M372.425-288.754c-6.618,0-11.981-5.364-11.981-11.983
			c0-6.617,5.363-11.982,11.981-11.982c6.619,0,11.983,5.365,11.983,11.982C384.408-294.119,379.042-288.754,372.425-288.754z
			 M372.425-426.553c-6.618,0-11.981-5.365-11.981-11.983c0-6.619,5.363-11.983,11.981-11.983c6.619,0,11.983,5.364,11.983,11.983
			C384.408-431.918,379.042-426.553,372.425-426.553z M449.119-355.663c0,20.149-12.653,27.646-28.819,27.646
			s-28.7-7.496-28.7-27.646v-31.043c0-20.149,12.534-27.646,28.7-27.646s28.819,7.497,28.819,27.646V-355.663z"/>
	</g>
</g>
<g>
	<path fill="#EA383E" d="M134.654,25.523H505.37c15.908,0,28.929,13.014,28.929,28.947v191.053
		c0,15.934-13.021,28.953-28.929,28.953H134.654c-15.933,0.023-28.953-13.021-28.953-28.953V54.47
		C105.701,38.574,118.721,25.523,134.654,25.523z M130.073,184.105c1.942,0,3.511-1.594,3.511-3.51v-61.119
		c0-1.936-1.568-3.491-3.511-3.491c-1.916,0-3.484,1.569-3.484,3.491v61.119C126.563,182.537,128.131,184.105,130.073,184.105z
		 M505.37,135.542c-7.991,0-14.54,6.484-14.54,14.476c0,7.998,6.549,14.484,14.54,14.484s14.488-6.486,14.488-14.484
		C519.858,142.04,513.361,135.542,505.37,135.542z M151.608,45.676v208.686h329.116V45.676H151.608z"/>
</g>
</svg>
