<?xml version="1.0" encoding="utf-8"?>
<!-- Generator: Adobe Illustrator 16.0.0, SVG Export Plug-In . SVG Version: 6.00 Build 0)  -->
<!DOCTYPE svg PUBLIC "-//W3C//DTD SVG 1.1//EN" "http://www.w3.org/Graphics/SVG/1.1/DTD/svg11.dtd">
<svg version="1.1" id="Layer_1" xmlns="http://www.w3.org/2000/svg" xmlns:xlink="http://www.w3.org/1999/xlink" x="0px" y="0px"
	 width="250px" height="250px" viewBox="0 0 250 250" enable-background="new 0 0 250 250" xml:space="preserve">
<g>
	<circle fill="#33CCFF" cx="125.458" cy="125.028" r="110.667"/>
	<g>
		<path fill="#FFFFFF" d="M192.584,82.348c-4.328,1.958-9.052,3.148-13.726,3.932c2.22-0.374,5.51-4.39,6.817-6.012
			c1.995-2.478,3.664-5.302,4.596-8.351c0.12-0.237,0.217-0.537-0.021-0.717c-0.298-0.119-0.491-0.059-0.727,0.06
			c-5.217,2.795-10.612,4.824-16.354,6.26c-0.475,0.118-0.826,0-1.126-0.299c-0.477-0.538-0.924-1.044-1.431-1.461
			c-2.414-2.055-5.004-3.665-7.922-4.856c-3.834-1.562-8.024-2.224-12.152-1.956c-4.018,0.259-7.963,1.393-11.527,3.256
			c-3.574,1.868-6.764,4.463-9.302,7.596c-2.625,3.242-4.562,7.068-5.554,11.124c-0.957,3.914-0.878,7.788-0.293,11.747
			c0.086,0.655,0.029,0.744-0.566,0.655c-22.465-3.343-41.084-11.382-56.202-28.607c-0.658-0.748-1.013-0.748-1.549,0.057
			c-6.615,9.916-3.405,25.846,4.858,33.674c1.1,1.044,2.234,2.086,3.452,3.039c-0.444,0.092-5.944-0.504-10.843-3.039
			c-0.658-0.416-0.986-0.177-1.045,0.567c-0.059,1.072,0.032,2.057,0.178,3.22c1.269,10.05,8.231,19.346,17.762,22.975
			c1.132,0.476,2.382,0.893,3.603,1.101c-2.172,0.474-4.408,0.816-10.635,0.329c-0.776-0.151-1.072,0.238-0.776,0.983
			c4.681,12.757,14.783,16.553,22.349,18.714c1.013,0.178,2.026,0.178,3.042,0.415c-0.062,0.091-0.121,0.091-0.181,0.18
			c-2.508,3.824-11.21,6.675-15.262,8.09c-7.367,2.574-15.391,3.731-23.179,2.966c-1.247-0.183-1.509-0.168-1.846,0
			c-0.342,0.212-0.043,0.508,0.355,0.833c1.582,1.044,3.191,1.969,4.829,2.863c4.945,2.621,10.102,4.707,15.495,6.197
			c27.845,7.691,59.213,2.04,80.124-18.736c16.418-16.312,22.172-38.809,22.172-61.334c0-0.882,1.042-1.369,1.662-1.834
			c4.271-3.21,7.575-7.052,10.761-11.34c0.719-0.963,0.58-1.82,0.58-2.172c0-0.062,0-0.118,0-0.118
			C193,81.986,193.139,82.094,192.584,82.348z"/>
		<path fill-rule="evenodd" clip-rule="evenodd" fill="#FFFFFF" d="M97.355,181.386C108.901,181.386,97.908,181.386,97.355,181.386
			C98.875,181.386,97.293,181.386,97.355,181.386z"/>
		<path fill-rule="evenodd" clip-rule="evenodd" fill="#FFFFFF" d="M97.355,181.386C97.174,181.398,95.105,181.386,97.355,181.386
			C97.355,181.386,96.995,181.386,97.355,181.386z"/>
		<path fill-rule="evenodd" clip-rule="evenodd" fill="#FFFFFF" d="M101.944,181.504
			C101.944,181.275,104.359,181.504,101.944,181.504C101.944,181.386,102.241,181.504,101.944,181.504z"/>
		<path fill-rule="evenodd" clip-rule="evenodd" fill="#FFFFFF" d="M150.157,69.756c-0.149,0.121-0.356,0.121-0.563,0
			C149.801,69.756,150.008,69.756,150.157,69.756z"/>
	</g>
</g>
<g>
</g>
<g>
</g>
<g>
</g>
<g>
</g>
<g>
</g>
<g>
</g>
</svg>
