<?xml version="1.0" encoding="utf-8"?>
<!-- Generator: Adobe Illustrator 16.0.0, SVG Export Plug-In . SVG Version: 6.00 Build 0)  -->
<!DOCTYPE svg PUBLIC "-//W3C//DTD SVG 1.1//EN" "http://www.w3.org/Graphics/SVG/1.1/DTD/svg11.dtd">
<svg version="1.1" id="Layer_1" xmlns="http://www.w3.org/2000/svg" xmlns:xlink="http://www.w3.org/1999/xlink" x="0px" y="0px"
	 width="250px" height="250px" viewBox="0 0 250 250" enable-background="new 0 0 250 250" xml:space="preserve">
<g>
	<circle fill="#3C5A99" cx="126.689" cy="125.338" r="111.354"/>
	<path fill="#A2B1CE" d="M124.417,131.656c-0.073-0.534-0.146-1.068-0.223-1.601c0.215-3.256-0.26-6.609,1.408-9.654
		c0.525,0.453,1.052,0.908,1.577,1.358c3.484,2.883,0.562,6.635,1.345,9.883c-0.446,0.024-0.895,0.041-1.345,0.046
		C126.261,131.678,125.339,131.667,124.417,131.656z"/>
	<path fill="#E8ECF3" d="M129.17,123.471c-0.729,1.816-1.461,3.633-2.19,5.452c-0.979-1.92-6.274-3.829-0.009-5.756
		C127.706,123.268,128.438,123.37,129.17,123.471z"/>
	<path fill="#A7B5D1" d="M124.563,120.371c0.922,0.008,1.841,0.02,2.763,0.03c0.45,1.416,0.903,2.827,1.353,4.243
		c-1.504,0.995-0.064,1.887,0.101,2.82c-0.487,0.49-0.976,0.98-1.464,1.469c-1.169,0.575-1.396,1.627-1.412,2.784
		C123.091,128.215,125.057,124.146,124.563,120.371z"/>
	<path fill-rule="evenodd" clip-rule="evenodd" fill="#FFFFFF" d="M108.236,126.6v68.203c0,0.981,0.794,1.775,1.776,1.775h25.329
		c0.981,0,1.776-0.794,1.776-1.775V125.49h18.36c0.923,0,1.692-0.71,1.771-1.627l1.765-20.885c0.086-1.037-0.729-1.927-1.771-1.927
		h-20.126V86.234c0-3.471,2.813-6.288,6.287-6.288h14.15c0.981,0,1.776-0.795,1.776-1.776V57.287c0-0.981-0.795-1.777-1.776-1.777
		h-23.911c-14.031,0-25.408,11.375-25.408,25.408v20.134H95.574c-0.982,0-1.778,0.796-1.778,1.776v20.883
		c0,0.982,0.796,1.779,1.778,1.779h12.662V126.6z"/>
</g>
</svg>
